# xmcd
#
# Track frame offsets: 
#        150
#        11470
#        21842
#        32032
#        43530
#        54277
#        65455
#        76825
#        88087
#        99100
#        110810
#        121852
#        133155
#        145700
#        160070
#
# Disc length: 2305 seconds
#
# Revision: 0
# Processed by: cddbd v1.5.2PL0 Copyright (c) Steve Scherf et al.
# Submitted via: ExactAudioCopyFreeDBPlugin 1.0
#
DISCID=b608ff0f
DTITLE=Patsy Cline - Gems
DYEAR=2003
DGENRE=Country
TTITLE0=Just Out Of Reach
TTITLE1=Walking Dream
TTITLE2=Three Cigarettes In An Ashtray
TTITLE3=Walkin' After Midnight
TTITLE4=Honky Tonk Merry Go Round
TTITLE5=Hidin' Out
TTITLE6=Cry Not For Me
TTITLE7=Hungry For Love
TTITLE8=I Cried All The Way To The Altar
TTITLE9=A Pooy Man's Roses (Or A Rich Man's Gold)
TTITLE10=I Can't Forget
TTITLE11=That Wonderful Someone
TTITLE12=Fingerprints
TTITLE13=Then You'll Know
TTITLE14=Life's Railway To Heaven
EXTD=
EXTT0=
EXTT1=
EXTT2=
EXTT3=
EXTT4=
EXTT5=
EXTT6=
EXTT7=
EXTT8=
EXTT9=
EXTT10=
EXTT11=
EXTT12=
EXTT13=
EXTT14=
PLAYORDER=
